<?xml version="1.0"?>
<svg version="1.1" xmlns="http://www.w3.org/2000/svg" width="200px" height="150px" style=""><path fill="#040b0f" d="M71.2,108q-5,0-9.3-0.8q1.4,4.4,5.9,19.9q1.4,4.5,4.4,9.1q4.1,5.9,7.6,5.9q4.2,0,7-8.5q0.5-2,1.05-2t0.8,1.15t0.25,1.55q0,2.5-2.8,6.4q-3.7,5.5-8.1,5.5t-8.1-4.4t-7.25-16.05t-3.55-14.85q0-0.5,0.1-0.8q-12,15.9-17.2,21q-11.6,11.3-23.7,11.3q-8.5,0-8.5-6.4q0-3.2,2-7.05t4.9-6.75t5.1-2.9q0.4,0,0.4,0.2q0,0.5-2.5,2.5t-4.8,5.65t-2.3,6.65q0,5.3,7.1,5.3q13.3,0,36.6-31.2q1.3-1.7,2.2-2.4l-1.6-0.6q-1.3,0.5-2.1,0.5q-2.1,0-2.1-1.7q0-2.3,3.1-3q0.4-0.1,0.7-0.1q1.8,0,4.2,1.8q8.8-9.8,9-10q7.3-7.5,9.85-7.5t2.55,2.2q0,1-0.45,1.9t-1.05,0.9q-0.6,0.2-0.6-0.6q0-0.4,0.6-1.2q0.1-1.4-0.9-1.4q-3.2,0-15.5,17q3,0.2,5,0.2q23.2,0,29-12q1.2-2.6,1.2-4.8q0-4.4-4-7.6q-6.4-5.2-20.8-5.2t-29.4,7.3q-18.2,8.9-18.2,20.9q0,3.9,4.9,3.9t10.4-3.6t7.4-7.1q0.7-1.3,1.35-1.3t0.35,0.8q-1.9,5.6-8.45,9.55t-13.65,3.95t-7.1-4.5l0-0.7q1.5-13.1,16.05-22.25t35.05-9.15q19.1,0,27.1,6.6q4.8,4,4.8,9.4q0,2.3-1.1,5q-3.1,7.3-12.7,10.85t-20.2,3.55z M141.417,133.8q-6.8,0-6.8-6.3q0-3.6,3.2-9.85t6.7-10.55q-6.2,3-14.3,10.85t-11.3,16.45q-0.5,0.8-1.7,0.8q-2.4,0-2.4-2.7q1-5.5,4.5-12.6q1.1-2.3,6.5-13.4q-7.8,5.1-13.25,10.95t-10.1,11.75t-5.25,5.9q-1.3,0-2.25-1.2t-0.95-2.4q0-1.8,5.2-13.2l-6,6.3q-2.2,2.2-2.75,2.2t-0.55-0.65t0.8-1.45q3.7-3.7,6.6-7.4t9.6-13.2q1.1-1.5,3.1-1.5t2,1.9q0,0.7-5.3,9.75t-5.9,11.35q4.1-4.5,12.3-12.1q12.3-11.4,16.2-11.4q1.2,0,2.2,0.7t1,1.55t-3.9,7.55q-3.8,6.9-4.2,8.2q11.1-9.3,11.1-9.4q9.4-7.3,13.5-7.3q1.2,0,2.25,0.75t1.05,1.75q0,0.2-6.5,8.45t-7.3,13.55q-0.2,1.8,0.7,2.7t3.25,0.9t6.9-3.25t9.25-8.75q1.8-2,2.45-2t0.65,0.5q0,0.7-0.9,1.6q-4.9,5.9-10.55,10.05t-8.85,4.15z M176.584,129.7q1.35,1,1.35,2.25t-1.25,2.2t-2.75,0.95t-2.75-1.05t-1.25-2.45q0-2.9,3.8-2.9q1.5,0,2.85,1z"/><path fill="#" d=""/></svg>
